HIERARCHY
ROOT Hips
{
	OFFSET 0.000000 0.000000 0.000000
	CHANNELS 6 Xposition Yposition Zposition Zrotation Yrotation Xrotation 
	JOINT LeftUpLeg_virtual
	{
		OFFSET 0.000000 0.000000 0.000000
		CHANNELS 3 Zrotation Yrotation Xrotation
		JOINT LeftUpLeg
		{
			OFFSET 10.205400 -3.823500 0.155100
			CHANNELS 3 Zrotation Yrotation Xrotation
			JOINT LeftLeg
			{
				OFFSET 0.708757 -12.982077 0.567790
				CHANNELS 3 Zrotation Yrotation Xrotation
				JOINT LeftFoot
				{
					OFFSET -0.708756 -10.717838 -2.184338
					CHANNELS 3 Zrotation Yrotation Xrotation
					JOINT LeftToeBase
					{
						OFFSET 0.108149 -7.191104 7.560241
						CHANNELS 3 Zrotation Yrotation Xrotation
						End Site
						{
							OFFSET 0.000000 0.000000 0.000000
						}
					}
				}
			}
		}
	}
	JOINT RightUpLeg_virtual
	{
		OFFSET 0.000000 0.000000 0.000000
		CHANNELS 3 Zrotation Yrotation Xrotation
		JOINT RightUpLeg
		{
			OFFSET -10.205400 -3.823500 0.005500
			CHANNELS 3 Zrotation Yrotation Xrotation
			JOINT RightLeg
			{
				OFFSET -0.708756 -12.982134 0.610632
				CHANNELS 3 Zrotation Yrotation Xrotation
				JOINT RightFoot
				{
					OFFSET 0.708754 -10.717769 -1.945823
					CHANNELS 3 Zrotation Yrotation Xrotation
					JOINT RightToeBase
					{
						OFFSET -0.108140 -7.191069 7.372968
						CHANNELS 3 Zrotation Yrotation Xrotation
						End Site
						{
							OFFSET 0.000000 0.000000 0.000000
						}
					}
				}
			}
		}
	}
	JOINT Spine_virtual
	{
		OFFSET 0.000000 0.000000 0.000000
		CHANNELS 3 Zrotation Yrotation Xrotation
		JOINT Spine
		{
			OFFSET 0.000000 6.876099 0.125700
			CHANNELS 3 Zrotation Yrotation Xrotation
			JOINT Spine1
			{
				OFFSET 0.000000 8.022060 0.146608
				CHANNELS 3 Zrotation Yrotation Xrotation
				JOINT Spine2
				{
					OFFSET 0.000000 9.168068 0.167552
					CHANNELS 3 Zrotation Yrotation Xrotation
					JOINT Neck_virtual
					{
						OFFSET 0.000000 0.000000 0.000000
						CHANNELS 3 Zrotation Yrotation Xrotation
						JOINT Neck
						{
							OFFSET 0.000000 10.314075 0.188496
							CHANNELS 3 Zrotation Yrotation Xrotation
							JOINT Head
							{
								OFFSET 0.000000 7.643700 -2.377400
								CHANNELS 3 Zrotation Yrotation Xrotation
								End Site
								{
									OFFSET 0.000000 0.000000 0.000000
								}
							}
						}
					}
					JOINT LeftShoulder_virtual
					{
						OFFSET 0.000000 0.000000 0.000000
						CHANNELS 3 Zrotation Yrotation Xrotation
						JOINT LeftShoulder
						{
							OFFSET 4.392200 8.824978 0.174984
							CHANNELS 3 Zrotation Yrotation Xrotation
							JOINT LeftArm
							{
								OFFSET 8.771219 -2.981674 -0.026999
								CHANNELS 3 Zrotation Yrotation Xrotation
								JOINT LeftForeArm
								{
									OFFSET 8.512804 0.000000 -0.000000
									CHANNELS 3 Zrotation Yrotation Xrotation
									JOINT LeftHand
									{
										OFFSET 18.484802 0.000000 -0.000000
										CHANNELS 3 Zrotation Yrotation Xrotation
										End Site
										{
											OFFSET 0.000000 0.000000 0.000000
										}
									}
								}
							}
						}
					}
					JOINT RightShoulder_virtual
					{
						OFFSET 0.000000 0.000000 0.000000
						CHANNELS 3 Zrotation Yrotation Xrotation
						JOINT RightShoulder
						{
							OFFSET -4.392200 8.824993 0.141379
							CHANNELS 3 Zrotation Yrotation Xrotation
							JOINT RightArm
							{
								OFFSET -8.771282 -2.981682 -0.094208
								CHANNELS 3 Zrotation Yrotation Xrotation
								JOINT RightForeArm
								{
									OFFSET -8.494598 0.000000 0.000000
									CHANNELS 3 Zrotation Yrotation Xrotation
									JOINT RightHand
									{
										OFFSET -18.483803 0.000000 0.000001
										CHANNELS 3 Zrotation Yrotation Xrotation
										End Site
										{
											OFFSET 0.000000 0.000000 0.000000
										}
									}
								}
							}
						}
					}
				}
			}
		}
	}
}
MOTION
Frames: 13
Frame Time: 0.033333
3.981639 36.026787 11.596801 179.951798 2.386904 179.896487 -1.009514 -4.122332 12.331856 -6.946610 -3.468288 -15.779093 10.848577 5.443692 16.844595 -3.603195 0.303023 4.413150 0.000000 0.000000 0.000000 3.440177 -3.197008 11.510365 -4.209618 8.761623 -17.745953 -4.201483 5.898422 18.870165 11.884224 2.729986 2.340316 0.000000 0.000000 0.000000 2.171722 -0.799912 -0.780127 -1.785994 1.068658 -8.270320 0.438262 -2.804337 5.989444 0.017917 -0.138731 -0.013884 -0.007896 -0.798351 8.267031 0.041837 2.953319 18.417661 0.000000 0.000000 0.000000 1.269191 -0.033815 5.187594 -17.699984 -8.799994 1.444757 -45.474023 16.599388 6.528614 -1.308962 -38.785584 3.256709 0.000000 0.000000 0.000000 -2.137495 0.840689 4.847171 26.828857 5.361080 4.494047 42.479682 -17.096023 10.751131 -3.360376 28.804414 -1.731327 0.000000 0.000000 0.000000 
3.977108 36.026676 11.589872 179.890777 2.347652 179.944790 -1.004544 -4.108426 12.271373 -7.087329 -3.347407 -15.851351 10.768106 5.822363 17.126097 -3.730181 0.208516 4.329959 0.000000 0.000000 0.000000 3.366368 -3.247011 11.508923 -4.095674 8.704033 -17.869546 -3.986831 5.847755 18.940366 12.142520 2.927920 2.392024 0.000000 0.000000 0.000000 2.128691 -0.720212 -0.806624 -1.808802 1.002968 -8.301257 0.387695 -2.893314 6.002936 0.067989 -0.004080 -0.002380 0.023958 -0.831594 8.274559 0.013310 2.965465 18.415769 0.000000 0.000000 0.000000 1.277801 -0.094922 5.215377 -17.769077 -8.833319 1.437711 -45.456056 16.577697 6.551187 -1.324710 -38.751427 3.277869 0.000000 0.000000 0.000000 -2.095621 0.786129 4.838208 26.829046 5.296043 4.479637 42.553243 -17.124770 10.722098 -3.360373 28.855405 -1.689166 0.000000 0.000000 0.000000 
3.974463 36.024223 11.584296 179.971154 2.430484 -179.993871 -0.932147 -4.086021 12.254135 -7.114001 -3.288406 -15.907333 10.830128 5.818029 17.232902 -3.803657 0.183234 4.281947 0.000000 0.000000 0.000000 3.467506 -3.137132 11.520694 -4.060300 8.710836 -17.955994 -4.012199 5.985907 18.974312 12.107052 2.846842 2.322802 0.000000 0.000000 0.000000 2.182875 -0.844073 -0.787953 -1.724171 1.077331 -8.318431 0.440785 -2.837729 6.007247 0.027275 0.051241 0.034681 0.012642 -0.834373 8.234949 0.017038 3.020099 18.402119 0.000000 0.000000 0.000000 1.268661 -0.137859 5.176008 -17.799326 -8.784739 1.471227 -45.498052 16.514248 6.773998 -1.232472 -38.571034 3.163697 0.000000 0.000000 0.000000 -2.098270 0.790969 4.756493 26.857467 5.227641 4.494811 42.623307 -17.109127 10.688408 -3.382346 29.058166 -1.724554 0.000000 0.000000 0.000000 
3.976725 36.026173 11.577066 179.886747 2.515507 -179.938629 -1.015486 -4.191551 12.243546 -7.154900 -3.192353 -15.950710 10.930445 5.892486 17.263824 -3.847635 0.206218 4.212539 0.000000 0.000000 0.000000 3.358187 -3.203305 11.521084 -4.057095 8.678283 -18.073457 -4.024416 6.151723 18.944535 12.188387 2.815211 2.416684 0.000000 0.000000 0.000000 2.115027 -0.737750 -0.804815 -1.690744 1.033610 -8.307614 0.394440 -2.919586 6.018784 -0.002077 0.002108 0.017731 0.035008 -0.892595 8.263342 -0.029419 3.031500 18.384067 0.000000 0.000000 0.000000 1.294592 -0.128349 5.204785 -17.826334 -8.764288 1.429477 -45.571596 16.442668 6.907305 -1.308150 -38.315930 3.151372 0.000000 0.000000 0.000000 -2.090651 0.759402 4.826301 26.838781 5.179157 4.364222 42.666143 -17.034050 10.879422 -3.413326 29.160618 -1.692872 0.000000 0.000000 0.000000 
3.987843 36.028179 11.566532 179.977752 2.647187 -179.896664 -0.981033 -4.290187 12.255937 -7.216463 -3.020035 -15.933064 11.052201 5.700673 17.288162 -3.903101 0.253394 4.138931 0.000000 0.000000 0.000000 3.424888 -3.228834 11.535911 -3.989764 8.715319 -18.144435 -4.069847 6.299669 18.909558 12.274361 2.754545 2.498106 0.000000 0.000000 0.000000 2.138405 -0.760156 -0.793586 -1.555037 1.051636 -8.262826 0.401630 -2.957969 6.019099 0.022600 -0.016483 0.030536 -0.039521 -0.857635 8.261512 -0.088168 3.032294 18.363146 0.000000 0.000000 0.000000 1.225387 -0.117262 5.201519 -17.805316 -8.684701 1.396799 -45.618857 16.367438 7.230413 -1.369551 -38.114023 3.147418 0.000000 0.000000 0.000000 -2.175917 0.757633 4.825509 26.849023 5.111466 4.309355 42.725845 -16.939974 11.059630 -3.453878 29.213846 -1.697508 0.000000 0.000000 0.000000 
4.000067 36.029572 11.556205 179.890913 2.904589 -179.990060 -1.101641 -4.205595 12.274065 -7.230392 -2.951224 -15.860942 11.228157 5.710968 17.552147 -3.981593 0.303867 4.012766 0.000000 0.000000 0.000000 3.323269 -3.183960 11.514306 -3.917255 8.764174 -18.136691 -4.111277 6.456148 18.962335 12.296851 2.672281 2.575074 0.000000 0.000000 0.000000 2.078820 -0.802225 -0.703896 -1.469546 1.097343 -8.149915 0.345815 -2.983280 6.082766 -0.004846 -0.027498 0.030448 -0.026025 -0.925481 8.235153 -0.157104 3.023085 18.306468 0.000000 0.000000 0.000000 1.235999 -0.078906 5.134519 -17.770064 -8.554495 1.446334 -45.719155 16.301114 7.678004 -1.512001 -38.141733 3.140718 0.000000 0.000000 0.000000 -2.142658 0.789076 4.815633 26.894981 5.101546 4.189303 42.731289 -16.796566 11.285930 -3.418641 29.141449 -1.611756 0.000000 0.000000 0.000000 
4.017057 36.030109 11.541505 179.885995 3.107759 -179.942017 -1.111570 -4.316522 12.267192 -7.305681 -2.800564 -15.777495 11.366166 5.701457 17.486186 -4.056030 0.383441 3.914600 0.000000 0.000000 0.000000 3.271772 -3.211599 11.461418 -3.824051 8.834984 -18.165885 -4.175721 6.643894 18.932432 12.384010 2.624521 2.648217 0.000000 0.000000 0.000000 2.051412 -0.771154 -0.742435 -1.338673 1.210233 -8.074620 0.327616 -2.967278 6.153540 -0.008197 0.012644 0.020404 -0.010106 -0.980902 8.255255 -0.238903 3.003516 18.282316 0.000000 0.000000 0.000000 1.236842 -0.165784 5.203476 -17.674972 -8.581727 1.395077 -45.698429 16.336861 8.587486 -1.596557 -38.510075 3.082005 0.000000 0.000000 0.000000 -2.141488 0.701940 4.776097 26.947545 4.960887 4.151838 42.762797 -16.642398 11.489458 -3.443067 28.989368 -1.592783 0.000000 0.000000 0.000000 
4.028931 36.031078 11.522526 179.969351 3.342873 -179.976304 -1.077148 -4.340620 12.294052 -7.380453 -2.572553 -15.620638 11.506079 5.573666 17.508160 -4.150533 0.459224 3.812431 0.000000 0.000000 0.000000 3.324903 -3.204975 11.403619 -3.726030 9.007338 -18.119597 -4.251402 6.810673 18.951540 12.376971 2.544544 2.699582 0.000000 0.000000 0.000000 2.075663 -0.783147 -0.680399 -1.161865 1.270426 -8.000038 0.336108 -3.012610 6.235224 0.021475 -0.003792 0.000780 -0.068326 -0.941029 8.283606 -0.340202 2.985523 18.260538 0.000000 0.000000 0.000000 1.166705 -0.192485 5.223061 -17.473082 -8.511174 1.393250 -45.515851 16.558665 9.716318 -1.793726 -39.443697 3.149814 0.000000 0.000000 0.000000 -2.216391 0.677457 4.809609 26.971797 4.901015 4.125416 42.900183 -16.487721 11.648931 -3.514891 28.765553 -1.641611 0.000000 0.000000 0.000000 
4.033861 36.037018 11.498021 179.888400 3.612447 179.994500 -1.172511 -4.319726 12.257572 -7.390648 -2.492261 -15.512012 11.572468 5.793455 17.593877 -4.265038 0.486291 3.711452 0.000000 0.000000 0.000000 3.241239 -3.101214 11.330489 -3.694791 9.148206 -18.046731 -4.307863 6.951475 18.998581 12.358114 2.500329 2.716385 0.000000 0.000000 0.000000 2.017501 -0.808250 -0.634415 -1.047490 1.309140 -7.941817 0.297548 -3.057591 6.323740 -0.021517 -0.032692 0.028220 -0.027660 -1.027584 8.321161 -0.451350 2.976017 18.279746 0.000000 0.000000 0.000000 1.231156 -0.167220 5.167536 -17.106253 -8.331927 1.471651 -45.078777 17.060954 11.108858 -1.997369 -41.119498 3.227430 0.000000 0.000000 0.000000 -2.151437 0.747372 4.849562 27.092722 4.889957 4.099169 42.920229 -16.329673 11.645381 -3.436024 28.660898 -1.572688 0.000000 0.000000 0.000000 
4.044318 36.048847 11.470767 179.880408 3.767426 -179.902661 -1.206410 -4.335746 12.185974 -7.364411 -2.421267 -15.454077 11.587063 5.894858 17.630947 -4.331674 0.511300 3.685085 0.000000 0.000000 0.000000 3.257926 -2.986456 11.242933 -3.645678 9.208670 -17.995735 -4.330422 7.030911 18.958585 12.365050 2.486424 2.711998 0.000000 0.000000 0.000000 1.999880 -0.714650 -0.666743 -0.883530 1.402039 -7.992012 0.326350 -3.063604 6.414172 0.008025 0.001684 0.021445 -0.012016 -1.059677 8.460436 -0.574739 2.975148 18.374517 0.000000 0.000000 0.000000 1.261228 -0.281041 5.309122 -16.564454 -8.249532 1.429751 -44.321330 17.883466 13.002805 -2.194277 -43.493176 3.380460 0.000000 0.000000 0.000000 -2.165031 0.614591 4.954044 27.166632 4.773100 4.120856 43.077023 -16.168297 11.401759 -3.429517 28.548767 -1.582107 0.000000 0.000000 0.000000 
4.058554 36.063667 11.445625 179.909300 3.861329 -179.939940 -1.200690 -4.309358 12.185321 -7.340179 -2.249363 -15.354050 11.572999 5.753643 17.577808 -4.316440 0.550593 3.741747 0.000000 0.000000 0.000000 3.321735 -2.884816 11.356590 -3.617371 9.264043 -18.002818 -4.380392 7.067570 18.945806 12.276980 2.442621 2.723153 0.000000 0.000000 0.000000 2.001746 -0.679693 -0.615650 -0.718625 1.470519 -8.012823 0.333339 -3.094206 6.589806 -0.018539 -0.000260 -0.006496 0.015234 -1.121608 8.562014 -0.728111 2.974109 18.509524 0.000000 0.000000 0.000000 1.319318 -0.324223 5.342307 -15.853089 -8.008980 1.454258 -43.252378 19.112497 15.158119 -2.389996 -46.544860 3.594669 0.000000 0.000000 0.000000 -2.138768 0.581801 5.011688 27.228319 4.698032 4.172471 43.239359 -16.099418 10.892997 -3.373032 28.523249 -1.570755 0.000000 0.000000 0.000000 
4.083784 36.078453 11.426927 179.935350 3.958497 -179.972712 -1.207277 -4.198574 12.193553 -7.225316 -2.412664 -15.223722 11.507308 5.843500 17.585319 -4.260799 0.538299 3.819886 0.000000 0.000000 0.000000 3.363970 -2.799133 11.268102 -3.571855 9.441199 -17.787088 -4.393564 7.007508 18.963899 12.156427 2.425201 2.758190 0.000000 0.000000 0.000000 2.010339 -0.658189 -0.533204 -0.559186 1.584992 -8.069713 0.361635 -3.092967 6.721562 0.028277 0.024387 0.035897 -0.008367 -1.117214 8.684352 -0.860125 3.002557 18.709285 0.000000 0.000000 0.000000 1.304087 -0.425757 5.419613 -15.020436 -7.707667 1.523861 -41.904290 20.545160 17.181314 -2.926596 -49.974998 4.204251 0.000000 0.000000 0.000000 -2.181322 0.522540 5.087283 27.309045 4.636301 4.281472 43.374888 -16.092979 10.238610 -3.292591 28.558686 -1.593665 0.000000 0.000000 0.000000 
4.114131 36.091881 11.411281 -179.978913 3.870024 -179.911240 -1.128686 -4.227374 12.093729 -7.130644 -2.462878 -15.147814 11.377335 5.657668 17.443424 -4.135881 0.510604 3.880463 0.000000 0.000000 0.000000 3.514704 -2.804688 11.206199 -3.504465 9.480824 -17.734465 -4.467948 7.118332 18.979822 11.945356 2.385469 2.715289 0.000000 0.000000 0.000000 2.070895 -0.731609 -0.518337 -0.372040 1.665410 -8.155412 0.362963 -3.136085 6.904908 -0.009320 0.004569 0.007951 0.025733 -1.191238 8.873848 -0.999920 3.037270 19.002865 0.000000 0.000000 0.000000 1.357408 -0.416174 5.540187 -14.071616 -7.367773 1.616947 -40.228233 22.049434 19.257397 -3.424169 -53.400154 4.797343 0.000000 0.000000 0.000000 -2.159915 0.498333 5.266320 27.343909 4.700052 4.301159 43.431042 -16.044222 9.669846 -3.210720 28.501679 -1.608225 0.000000 0.000000 0.000000 
